<?xml version="1.0" standalone="no"?>
<!DOCTYPE svg PUBLIC "-//W3C//DTD SVG 20010904//EN"
 "http://www.w3.org/TR/2001/REC-SVG-20010904/DTD/svg10.dtd">
<svg version="1.0" xmlns="http://www.w3.org/2000/svg"
 width="512.000000pt" height="512.000000pt" viewBox="0 0 512.000000 512.000000"
 preserveAspectRatio="xMidYMid meet">
<metadata>
Created by potrace 1.14, written by Peter Selinger 2001-2017
</metadata>
<g transform="translate(0.000000,512.000000) scale(0.100000,-0.100000)"
fill="#000000" stroke="none">
<path d="M842 5098 c-103 -31 -192 -89 -247 -160 -16 -21 -35 -44 -40 -51 -18
-21 -61 -118 -72 -162 -2 -11 -6 -55 -8 -97 -4 -89 20 -192 63 -272 35 -65
130 -160 192 -191 27 -14 51 -28 53 -32 3 -5 -34 -8 -81 -8 l-87 0 -1 -210 0
-210 -26 -3 c-22 -3 -25 1 -24 25 1 28 0 28 -53 26 -30 -2 -57 -5 -60 -9 -8
-7 -10 -299 -2 -312 6 -11 36 -15 88 -13 27 1 31 4 29 25 -3 27 13 39 34 26
11 -7 14 -60 15 -267 l0 -257 213 0 c142 0 212 -3 213 -10 0 -6 1 -60 2 -121
l2 -110 98 0 c83 0 96 -2 91 -15 -3 -8 -21 -55 -39 -105 -72 -194 -196 -521
-204 -540 -5 -11 -161 -423 -347 -915 -185 -492 -342 -906 -347 -920 -6 -14
-11 -27 -12 -30 0 -3 -11 -32 -24 -65 -13 -33 -27 -71 -31 -85 l-7 -26 298 1
c164 1 300 3 303 5 2 3 36 95 74 205 39 110 93 263 120 340 27 77 82 232 121
345 40 113 76 214 81 225 4 11 52 144 105 295 210 599 218 621 229 610 6 -6
16 -27 22 -48 29 -92 183 -532 194 -551 6 -12 8 -21 6 -21 -3 0 -1 -12 5 -27
14 -36 153 -436 184 -528 13 -38 63 -187 113 -330 49 -143 109 -316 132 -385
24 -69 45 -127 47 -130 3 -3 598 -5 1324 -5 l1319 0 1 25 c1 30 1 426 0 457
l-1 23 -732 2 -733 3 0 324 c0 225 3 325 11 328 6 2 303 5 660 6 l649 2 0 232
c0 150 -3 233 -10 233 -5 1 -302 2 -660 3 l-649 2 0 285 -1 285 718 3 717 2 1
73 c1 239 -1 420 -6 426 -11 10 -2025 7 -2028 -4 -1 -5 -3 -584 -2 -1287 0
-702 -3 -1274 -6 -1272 -3 2 -13 23 -22 46 -9 24 -47 126 -86 228 -38 102
-106 284 -151 405 -45 121 -90 243 -101 270 -30 79 -430 1149 -433 1160 -2 6
-6 17 -9 25 -55 129 -152 410 -143 412 6 2 47 4 91 3 l80 0 5 120 5 120 200 1
c110 1 205 2 210 3 7 1 11 42 10 114 -1 158 1 162 56 160 l45 -2 -1 47 c-1 26
0 52 2 58 3 8 56 11 171 11 158 0 167 -1 187 -22 124 -134 202 -220 211 -233
8 -10 29 -16 65 -16 l54 -1 0 520 0 520 -53 1 -53 1 -67 -76 c-37 -42 -81 -91
-99 -111 -17 -19 -42 -47 -55 -63 l-24 -28 -169 3 -170 3 0 55 0 55 -50 5 -50
5 0 85 0 85 -82 0 c-44 0 -79 3 -77 7 3 4 26 17 51 30 65 31 161 130 200 204
74 139 80 304 18 449 -76 177 -245 291 -446 300 -150 7 -276 -42 -384 -150
-160 -160 -194 -407 -83 -605 44 -78 128 -161 200 -198 l61 -32 -59 -1 c-67
-1 -580 -1 -663 0 l-54 1 60 30 c120 60 238 219 258 350 43 266 -94 495 -349
587 -65 23 -219 24 -294 1z"/>
</g>
</svg>
