<svg xmlns="http://www.w3.org/2000/svg" id="fc6a1d5c-ecf8-4dde-9ed9-4785a844fddf" data-name="Lag 1" viewBox="0 0 300 100"><defs><style>.b81b15af-3713-4518-a147-e3161faf5e3e{fill:#009ac1;}.adc297c4-8288-46ac-b088-bc1d89f886a2{fill:#fff;}</style></defs><path class="b81b15af-3713-4518-a147-e3161faf5e3e" d="M255,48a7.37,7.37,0,0,1-7.49-7.54A7.66,7.66,0,0,1,255,32.75a7.83,7.83,0,0,1,7.8,7.66A7.69,7.69,0,0,1,255,48Zm-47.91-.49a7.48,7.48,0,0,1-7.72-7.63,7.64,7.64,0,1,1,15.28,0,7.61,7.61,0,0,1-7.56,7.63Zm73.43-15.77h1.28a1.31,1.31,0,0,0,1.31-1.31v-9A1.32,1.32,0,0,0,281.81,20H263.3v6.16h-.16a16,16,0,0,0-13.63-7.49c-10.17,0-16.31,5.71-18.44,14.08-2.14-8.33-8.63-14.08-18.39-14.08A17.88,17.88,0,0,0,200.59,24V.78h-20.2a1.33,1.33,0,0,0-1.32,1.32v9.06a1.31,1.31,0,0,0,1.32,1.3H184v36h-7V20h-20a1.32,1.32,0,0,0-1.31,1.32v9a1.31,1.31,0,0,0,1.31,1.31h3.36v8.88c0,5.5,0,8.79-6,8.79-3.61,0-5.34-1.31-5.34-4.69V20h-20a1.32,1.32,0,0,0-1.31,1.32v9a1.31,1.31,0,0,0,1.31,1.31H132V49.54c0,7.89,4,11.9,12.33,11.9A24.82,24.82,0,0,0,160.6,55.1v5h38.78V55.36a16.57,16.57,0,0,0,13.05,6.08c10.32,0,16.43-6.28,18.54-15,2.13,8.32,8.42,15,18,15,6.34,0,10.1-2.54,13.8-7.23H263v5.92h18.82a1.33,1.33,0,0,0,1.31-1.33v-9a1.31,1.31,0,0,0-1.31-1.31h-3.3V31.69Z"></path><path class="b81b15af-3713-4518-a147-e3161faf5e3e" d="M77.91,48a7.36,7.36,0,0,1-7.48-7.54,7.66,7.66,0,0,1,7.48-7.66,7.83,7.83,0,0,1,7.8,7.66A7.69,7.69,0,0,1,77.91,48ZM30,47.46a7.47,7.47,0,0,1-7.7-7.63A7.64,7.64,0,1,1,30,47.46Zm98.8,1h-3.38V.78H105.12a1.33,1.33,0,0,0-1.33,1.32v9.06a1.32,1.32,0,0,0,1.33,1.3h3.67v36h-7.36V31.69h3.26A1.31,1.31,0,0,0,106,30.38v-9A1.31,1.31,0,0,0,104.69,20H86.21v6.16h-.16A16,16,0,0,0,72.42,18.7c-10.17,0-16.3,5.71-18.44,14.08C51.84,24.45,45.35,18.7,35.59,18.7A17.86,17.86,0,0,0,23.5,24V.78H3.29A1.32,1.32,0,0,0,2,2.1v9.06a1.31,1.31,0,0,0,1.31,1.3H6.92v36H3.29A1.31,1.31,0,0,0,2,49.76v9a1.32,1.32,0,0,0,1.31,1.33h19V55.36a16.53,16.53,0,0,0,13.05,6.08c10.32,0,16.43-6.28,18.55-15,2.12,8.32,8.4,15,18,15,6.31,0,10.09-2.54,13.79-7.23h.19v5.92h42.89a1.33,1.33,0,0,0,1.31-1.33v-9a1.31,1.31,0,0,0-1.31-1.31Z"></path><path class="b81b15af-3713-4518-a147-e3161faf5e3e" d="M296.69,48.56h-9a1.3,1.3,0,0,0-1.31,1.31v9a1.32,1.32,0,0,0,1.31,1.32h9a1.3,1.3,0,0,0,1.31-1.3v-9a1.32,1.32,0,0,0-1.31-1.33Z"></path><path class="adc297c4-8288-46ac-b088-bc1d89f886a2" d="M258.65,87.71l2.94,8.2h.48l-1.32,3.38H262l4.33-11.58H265L262.41,95,260,87.71Zm-1.42,8.2V90.19c0-1.9-1-2.67-2.36-2.67a5.4,5.4,0,0,0-3.16,1.33V87.71h-1.17v8.2h1.21V89.67a5.68,5.68,0,0,1,2.86-1.21c.92,0,1.41.58,1.41,1.73v5.72Zm-10.41-1.49a3,3,0,0,1-2,.77,1.46,1.46,0,0,1-1.61-1.5c0-1.16.66-1.8,2.57-1.8a8.38,8.38,0,0,1,1.06.1ZM248,95.91V89.82c0-1.56-1-2.3-2.56-2.3a6.45,6.45,0,0,0-3.17.77l.4.82a5.81,5.81,0,0,1,2.53-.65c.93,0,1.59.47,1.59,1.4v1.23c-.21,0-.62,0-.82,0-3,0-4.07.93-4.07,2.78a2.26,2.26,0,0,0,2.51,2.29,3.71,3.71,0,0,0,2.43-1l.1.83Zm-8.86-4.32a3.31,3.31,0,0,1-3.11,3.58,7,7,0,0,1-1.67-.27V89.19a4.32,4.32,0,0,1,2.15-.73c1.39,0,2.63,1.2,2.63,3.13m1.25-.07c0-2.49-1.58-4-3.6-4a3.74,3.74,0,0,0-2.43.91v-.72h-1.21V99.29h1.21V95.91a8.94,8.94,0,0,0,1.66.2,4.35,4.35,0,0,0,4.37-4.59m-9.63,4.39V90.19c0-1.9-1-2.67-2.37-2.67A5.25,5.25,0,0,0,225.19,89,2.15,2.15,0,0,0,223,87.52a5.05,5.05,0,0,0-3.06,1.33V87.71h-1.17v8.2H220V89.67a5.3,5.3,0,0,1,2.79-1.21c.91,0,1.41.58,1.41,1.73v5.72h1.21V90.19c0-.18,0-.34,0-.5a5.39,5.39,0,0,1,2.81-1.23c.92,0,1.42.58,1.42,1.73v5.72Zm-15.37-4.08c0,1.53-.8,3.33-2.73,3.33S210,93.36,210,91.83s1-3.37,2.74-3.37,2.73,1.69,2.73,3.37m1.24,0a4,4,0,1,0-7.95,0,4,4,0,1,0,7.95,0m-8.93,3a5.43,5.43,0,0,1-2.12.37c-2.48,0-4.31-2-4.31-4.83,0-2.59,1.57-4.76,4.21-4.76a5.08,5.08,0,0,1,2.21.47l.38-1a6.43,6.43,0,0,0-2.54-.47,5.75,5.75,0,0,0-.05,11.49A7.45,7.45,0,0,0,208,95.7ZM38.42,85.7l1.89,6H36.5Zm3.21,10.21h1.26l-3.61-11.1H37.55l-3.61,11.1h1.24l1-3.25H40.6Z"></path><path class="adc297c4-8288-46ac-b088-bc1d89f886a2" d="M151.85,78.88a4.13,4.13,0,0,0,.32-1.23.86.86,0,0,0-.92-.87c-.59,0-1.1.18-1.65,1.78l-.91,2.75-4.49.18c-.77.05-1.32.37-1.32,1.05s.59,1.06,1.42,1l3.7-.18c-.46,1.37-1.19,3.8-1.74,5.9a15.42,15.42,0,0,0-.64,4c0,2.06,1,3.39,3,3.39s4-1.24,6-2.66c1.1-.77,2.2-1.6,3-2.28.82,2.51,3,3.75,5.76,3.75A15.77,15.77,0,0,0,169.78,94c1.05,1.1,3.11,1.42,4.85,1.42,4.9,0,10.39-2.47,14.23-5.08.82-.55,1.1-.91,1.1-1.32a.9.9,0,0,0-1-.92,2.76,2.76,0,0,0-1.33.55c-3.8,2.29-8.74,4.58-13.13,4.58a8.56,8.56,0,0,1-2.38-.28c3.61-1.74,5.63-3.29,5.63-5.31,0-1.64-1.56-2.1-2.84-2.1-3.2,0-6.27,2.7-6.27,5.85a2.87,2.87,0,0,0,.09.78,15.36,15.36,0,0,1-5.07.92c-2.84,0-4.08-2.06-4.08-4.35a14.44,14.44,0,0,1,1.51-6.08l3.75-.23a15.7,15.7,0,0,1-1.6,1.78c-1,1-1.19,1.28-1.19,1.79a.78.78,0,0,0,.83.73c.78,0,1.46-.83,2-1.28a32.12,32.12,0,0,0,2.7-3.11l8-.42c.55,0,1.15-.27,1.15-1a.9.9,0,0,0-1-.87h-.14l-6.73.32A9.1,9.1,0,0,0,170.42,76a2,2,0,0,0-2.33-2.11c-3.75,0-6.73,3.66-8.47,6.91l-8.55.41ZM116.8,93a30.93,30.93,0,0,1-1.1-4.12c-.41-2-.78-3.34-2.65-3.34-2.47,0-4.94,2.61-7.92,6.36l-.46-1.78c-.45-1.74-1-3-2.88-3-1.51,0-3.43,1-6.31,3.93l.5-2.83a7.46,7.46,0,0,0,.09-.83c0-.45-.27-.77-.87-.77s-.86.18-1.64.77c-3.48,2.66-7.83,5.77-12.13,5.77-1.42,0-2.15-.6-2.15-1.69a2.39,2.39,0,0,1,.14-.74,6.12,6.12,0,0,0,2.15.37c2.84,0,5.4-1.46,5.4-3.34,0-1.33-1.19-2.15-3.07-2.15a7.19,7.19,0,0,0-5.62,2.74,7.15,7.15,0,0,0-3.48-.86c-2.84,0-4.9,1.14-7.55,4.07A32.36,32.36,0,0,0,67.84,86a.92.92,0,0,0-.91-1,6.13,6.13,0,0,0-1,.14l-6.73,1.33,2.75-8,14-.69c.83,0,1.1-.55,1.1-1a1,1,0,0,0-1.1-1l-20.13.69c-1,0-1.51.5-1.51,1.19s.46,1.1,1.51,1.05l3.43-.13-2.6,8.23-2.15.5c-.83.19-1.24.6-1.24,1.19a1,1,0,0,0,1,1.06,5.19,5.19,0,0,0,.83-.1l.73-.13-1.6,4.89a3.4,3.4,0,0,0-.23,1.06.88.88,0,0,0,1,.91,1.13,1.13,0,0,0,1.1-.87l2.24-6.5,7.14-1.55a70.57,70.57,0,0,1-1,7.14,5.58,5.58,0,0,0-.14,1.05.84.84,0,0,0,1,.87c.46,0,.73-.28,1-.69,1.83-2.56,5-6.13,8.42-6.13a6.41,6.41,0,0,1,2.42.55,4.15,4.15,0,0,0-.32,1.6c0,2.33,1.42,3.66,4.08,3.66,3.15,0,7.23-1.42,12.44-5.54-.18,1-.46,2.25-.78,3.62a3.38,3.38,0,0,0-.13.82.87.87,0,0,0,.91,1c.5,0,.87-.23,1.65-1s1.51-1.55,2.47-2.42c1.65-1.51,2.79-2.47,3.71-2.47.54,0,.82.41,1.28,2.1.59,2.15.91,3.07,2,3.07s1.33-.37,2.79-2.11c2.57-3,4.26-4.57,5.22-4.57.32,0,.46.18.59.73l.69,2.74a10.71,10.71,0,0,0,.78,2.34,1.52,1.52,0,0,0,1.37.91.89.89,0,0,0,1-.87,2.19,2.19,0,0,0-.18-.73m35.6,0a6.88,6.88,0,0,1-3.3,1.28c-.82,0-1.19-.6-1.19-1.56a18.7,18.7,0,0,1,.73-3.8c.64-2.19,1.05-3.56,1.74-5.67l8.28-.46a16.93,16.93,0,0,0-1.37,6.36v.32A38.15,38.15,0,0,1,152.4,93M131.49,96a1.44,1.44,0,0,0,1.19-.68,51.45,51.45,0,0,1,3.52-4.08c1.74-1.74,3.43-3.2,3.93-3.2.09,0,.14,0,.19.23l.36,2.15a10.5,10.5,0,0,0,1,3.11,1.38,1.38,0,0,0,1.19.69,1,1,0,0,0,1-1,3,3,0,0,0-.28-1A20.11,20.11,0,0,1,142.51,88c-.27-1.79-.91-2.2-1.92-2.2-1.69,0-4.85,2.61-7.41,5.91l.18-2.8a.82.82,0,0,0-.87-1,1,1,0,0,0-1,.87L130.66,94a6.53,6.53,0,0,0-.09,1,.89.89,0,0,0,.92,1m-10.71-1.37A10.1,10.1,0,0,0,126,93.16c.18,1,.64,1.19,1.1,1.19s1-.46,1-1.19a13.81,13.81,0,0,0-.18-2,.93.93,0,0,0-.92-.82c-.41,0-.64.09-1.32.64a8.43,8.43,0,0,1-4.53,1.6c-.46,0-.6-.14-.6-.27,0-1.24,2.38-4,5.77-4a4.15,4.15,0,0,1,2.1.55,1.36,1.36,0,0,0,.78.27.85.85,0,0,0,.91-.87,1.39,1.39,0,0,0-.68-1.05,5.48,5.48,0,0,0-3.25-1A8.15,8.15,0,0,0,121,88.17c-1.46,1.19-2.66,2.84-2.66,4.49,0,1.41,1.06,2,2.43,2M167.9,75.82c.19,0,.32,0,.37.14a10.6,10.6,0,0,1-2,4.48l-4.16.23c1.19-2.11,3.75-4.85,5.76-4.85m7,11.62c.64,0,1,.09,1,.37,0,.54-1.42,2-5,3.61a.62.62,0,0,1,0-.27c0-2,2.38-3.71,4.12-3.71m-91.14.09c.82,0,1.14.18,1.14.37,0,.73-1.87,1.37-3.2,1.37a4.5,4.5,0,0,1-1.33-.18,5,5,0,0,1,3.39-1.56"></path></svg>