<?xml version="1.0" encoding="utf-8"?>
<!-- Generator: Adobe Illustrator 16.0.3, SVG Export Plug-In . SVG Version: 6.00 Build 0)  -->
<!DOCTYPE svg PUBLIC "-//W3C//DTD SVG 1.1//EN" "http://www.w3.org/Graphics/SVG/1.1/DTD/svg11.dtd">
<svg version="1.1" id="Layer_1" xmlns="http://www.w3.org/2000/svg" xmlns:xlink="http://www.w3.org/1999/xlink" x="0px" y="0px"
	 width="742.142px" height="144.868px" viewBox="0 0 742.142 144.868" enable-background="new 0 0 742.142 144.868"
	 xml:space="preserve">
<path fill="#A4A5A7" d="M568.164,55.004c0,0.365,0.077,0.708,0.222,1.045c1.591,1.102,3.2,2.643,4.979,4.557l4.735-4.196
	c-2.742-2.645-4.671-3.706-6.637-3.706C569.823,52.705,568.164,53.417,568.164,55.004"/>
<path fill="#A4A5A7" d="M577.244,89.66c0-1.716-1.296-3.865-3.405-5.614l-2.148-1.809c-12.769-10.741-20.479-17.22-20.479-27.233
	c0-4.177,1.465-8.029,3.919-11.172c-5.898,2.711-9.996,8.299-9.996,14.953c0,9.432,8.098,15.708,21.803,27.261
	c2.668,2.219,4.231,4.988,4.231,7.396l-0.003,0.018c0.252,0.025,0.49,0.068,0.753,0.068
	C574.808,93.529,577.244,91.757,577.244,89.66"/>
<path fill="#A4A5A7" d="M547.664,93.272l-5.396,4.545c4.863,9.51,11.425,13.918,20.988,13.918c3.063,0,5.878-0.516,8.38-1.461
	c-10.278-0.001-17.849-5.038-23.15-15.396L547.664,93.272"/>
<path fill="#B31E17" d="M569.713,60.917c-1.929-1.655-3.859-3.327-3.859-5.912c0-2.675,2.298-4.621,5.61-4.621
	c3.574,0,6.561,2.429,10.29,6.445l8.81-7.82c-5.234-6.078-10.573-10.728-18.921-10.728c-9.931,0-18.118,7.304-18.118,16.724
	c0,9.431,8.099,15.709,21.802,27.261c2.67,2.217,4.23,4.989,4.23,7.396c0,3.416-3.403,6.19-7.638,6.19
	c-5.766,0-8.728-4.731-12.57-9.853l-8.805,7.82c4.861,9.503,11.539,14.133,21.099,14.133c11.96,0,20.242-7.758,20.242-18.853
	C591.885,76.999,582.042,71.824,569.713,60.917"/>
<polygon fill="#A4A5A7" points="279.259,108.606 278.695,107.106 274.111,94.932 250.321,94.932 249.74,96.39 267.317,96.39 
	272.468,110.065 285.539,110.065 294.818,108.606 280.859,108.606 "/>
<polygon fill="#A4A5A7" points="226.894,108.606 228.105,105.451 253.269,39.948 247.356,43.729 221.874,110.065 234.94,110.065 
	242.409,108.606 230.265,108.606 "/>
<polygon fill="#A4A5A7" points="258.501,73.52 260.188,77.905 267.554,77.905 262.188,63.946 "/>
<path fill="#B31E17" d="M255.746,39.947l-25.48,66.339h13.064l5.423-13.676h26.956l5.15,13.676h13.067L268.44,39.947H255.746z
	 M253.447,80.227l8.74-22.725l8.737,22.725H253.447z"/>
<path fill="#A4A5A7" d="M410.026,52.704c-2.755,0-5.32,0.531-7.627,1.503c12.197,0.421,20.943,10.837,20.943,22.787
	c0,5.625-1.897,10.695-5.044,14.6c6.616-3.159,11.123-10.106,11.123-18.378C429.422,61.711,420.901,52.704,410.026,52.704"/>
<path fill="#A4A5A7" d="M373.401,73.02c0-9.828,3.688-18.999,10.384-25.908c-9.82,6.012-16.462,16.871-16.462,29.689
	c0,19.316,14.993,34.838,34.586,34.84c3.533,0,6.934-0.528,10.13-1.506c-0.576,0.028-1.159,0.044-1.741,0.044
	C389.606,110.177,373.401,93.857,373.401,73.02"/>
<path fill="#B31E17" d="M410.118,38.281c-18.768-0.002-34.405,15.068-34.405,34.739c0,19.315,14.991,34.838,34.583,34.839
	c18.955,0,34.133-15.058,34.133-34.564C444.43,53.069,428.331,38.281,410.118,38.281 M410.205,95.751
	c-11.682,0-21.798-8.958-21.798-22.458c0-13.671,9.748-22.91,21.619-22.91c12.598,0,21.707,10.627,21.707,22.831
	C431.733,85.871,422.166,95.751,410.205,95.751"/>
<polygon fill="#A4A5A7" points="521.075,39.948 515.057,43.729 510.886,62.529 513.79,72.803 "/>
<polygon fill="#A4A5A7" points="489.216,39.948 483.227,43.729 477.812,63.037 480,72.803 "/>
<polygon fill="#A4A5A7" points="507.165,108.606 506.687,106.926 496.709,71.963 493.231,84.526 500.521,110.065 512.573,110.065 
	520.442,108.606 508.909,108.606 "/>
<polygon fill="#A4A5A7" points="471.003,108.606 470.594,106.799 455.484,39.948 449.468,43.729 464.458,110.065 476.419,110.065 
	484.168,108.606 472.848,108.606 "/>
<polygon fill="#B31E17" points="514.063,82.266 502.101,39.949 491.615,39.949 479.747,82.266 470.273,39.949 457.857,39.949 
	472.848,106.285 484.809,106.285 496.677,63.416 508.909,106.285 520.962,106.285 535.866,39.949 523.441,39.949 "/>
<polygon fill="#A4A5A7" points="646.08,108.606 645.395,107.612 629.179,84.216 629.179,96.039 638.903,110.065 653.806,110.065 
	663.795,108.606 647.292,108.606 "/>
<polygon fill="#A4A5A7" points="641.865,39.948 636.424,43.729 629.179,52.936 629.179,56.08 "/>
<polygon fill="#A4A5A7" points="611.953,108.606 611.953,106.285 611.953,39.948 605.877,43.729 605.877,110.065 618.48,110.065 
	626.867,108.606 614.266,108.606 "/>
<polygon fill="#B31E17" points="659.983,39.948 644.812,39.948 626.866,62.767 626.866,39.948 614.266,39.948 614.266,106.286 
	626.866,106.286 626.866,76.816 647.292,106.286 662.192,106.286 636.805,69.514 "/>
<polygon fill="#A4A5A7" points="678.744,108.606 678.744,106.285 678.744,39.948 672.671,43.729 672.671,110.065 685.27,110.065 
	693.655,108.606 681.058,108.606 "/>
<rect x="681.057" y="39.947" fill="#B31E17" width="12.599" height="66.338"/>
<polygon fill="#A4A5A7" points="309.75,108.612 309.75,106.287 309.75,39.946 303.672,43.73 303.672,110.068 315.844,110.068 
	324.23,108.612 312.061,108.612 "/>
<path fill="#A4A5A7" d="M336.74,63.44c0,1.084-0.117,2.062-0.335,2.945c5.232-0.643,6.413-3.17,6.413-6.726
	c0-4.139-1.585-6.896-9.316-6.896h-6.957v1.496C333.392,54.586,336.74,57.374,336.74,63.44"/>
<polygon fill="#A4A5A7" points="340.769,99.012 332.586,81.689 326.546,81.689 326.546,85.026 338.377,110.068 351.729,110.068 
	361.26,108.613 346.765,108.613 345.302,108.613 344.679,107.286 "/>
<path fill="#B31E17" d="M357.664,59.751c0-13.504-8.175-19.805-24.798-19.805h-20.805v66.341h12.171v-26.92h9.817l12.715,26.92
	h13.355l-14.625-29.746C353.307,74.351,357.664,68.419,357.664,59.751 M324.231,50.443h9.27c7.813,0,11.626,2.737,11.626,9.216
	c0,6.388-3.723,9.213-11.626,9.213h-9.27V50.443z"/>
<path fill="#A4A5A7" d="M707.766,95.556l-0.476-1.789l-5.68,4.972c1.963,7.403,8.677,12.878,16.657,12.878
	c2.503,0,4.874-0.552,7.025-1.52C717.025,109.516,709.93,103.707,707.766,95.556"/>
<path fill="#A4A5A7" d="M726.656,93.127c1.442,0,2.617-1.176,2.617-2.625V39.948l-6.08,3.781v47.55
	C724.179,92.601,725.051,93.127,726.656,93.127"/>
<path fill="#B31E17" d="M731.584,90.501c0,2.729-2.211,4.946-4.928,4.946c-3.865,0-5.216-2.406-7.107-5.557L710,94.96
	c1.963,7.397,8.676,12.875,16.656,12.875c9.516,0,15.485-7.776,15.485-17.334V39.947h-10.558V90.501z"/>
<path fill="#A4A5A7" d="M177.8,95.604l-0.476-1.788l-5.681,4.973c1.965,7.401,8.677,12.876,16.658,12.876
	c2.504,0,4.874-0.552,7.027-1.518C187.059,109.571,179.963,103.755,177.8,95.604"/>
<path fill="#A4A5A7" d="M196.688,93.176c1.444,0,2.617-1.176,2.617-2.625V39.999l-6.077,3.781v47.55
	C194.212,92.649,195.083,93.176,196.688,93.176"/>
<path fill="#B31E17" d="M201.617,90.552c0,2.729-2.211,4.944-4.929,4.944c-3.864,0-5.212-2.404-7.106-5.557l-9.55,5.068
	c1.965,7.397,8.677,12.875,16.656,12.875c9.517,0,17.259-7.774,17.259-17.331V39.997h-12.33V90.552z"/>
<path fill="#010202" d="M31.274,7.607c3.279,11.697,21.214,7.101,17.863,2.522c-5.321-7.271,13.645-7.374,14.901-9.075
	c0.156-0.211,0.071-0.57-0.147-1.054H30.377C30.3,2.389,30.53,4.951,31.274,7.607"/>
<path fill="#010202" d="M79.167,1.604c-4.413-2.628-0.059,3.983-7.119,4.189c-1.699,0.05-7.05-2.193-5.597-0.088
	c0.174,0.251,4.745,6.579,10.326,7.809c2.06,0.454,4.247,0.185,5.279-0.21c3.043-1.159,4.093,0.461,4.833,2.728
	c0.465,1.43,0.759,2.916,1.274,4.327c1.949,5.334,4.505,10.348,9.631,13.565c5.594,3.513,13.014,4.173,16.57-1.324
	c7.912-0.461,15.85,15.526,17.131,14.481c-6.774,9.181-6.043,23.344-5.758,29.425c0.181,3.898-0.484,9.318-2.676,13.051
	c-0.192,0.327-0.264,0.505-0.695,1.345c1.313,0.661,2.217,1.969,2.239,3.486v0.002c0.032,2.208-1.82,4.027-4.133,4.06
	c-0.395,0.007-0.779-0.043-1.145-0.137c-0.132-0.034-0.261-0.073-0.388-0.118c-0.176,0.413-0.35,0.835-0.523,1.257
	c-0.183,0.465-0.371,0.941-0.563,1.425c-0.012,0.034-0.026,0.065-0.036,0.1c-0.004,0.004-0.006,0.008-0.008,0.014
	c-2.247,5.705-4.902,12.562-7.351,17.784c-0.155,0.332,1.749,1.177,3.589-1.542c1.78-2.63,5.337-10.848,6.527-14.057
	c3.409,0.519,6.329-2.932,7.702-6.612c9.624-25.782,11.057-13.994,17.334-25.517c2.688-4.934-2.378-9.407,2.391-14.952
	c4.904-5.702,21.434-31.395,2.816-45.557c-4.182-3.183-2.549-4.434-3.103-8.946c-0.068-0.552-0.159-1.077-0.258-1.59h-5.614
	c1.07,3.34,1.272,7.752-0.496,13.603c-1.148,3.801-12.141-18.372-11.279-7.948c1.348,16.296-1.879-0.435-15.942-4.466
	c-12.216-3.502-11.856,1.877-6.636,5.825c8.463,6.402-5.57,1.974,1.488,11.086c2.896,3.74-5.316,3.5-9.703-7.673
	c-1.69-4.304-2.475-6.01-4.148-8.899C94.809,0.982,94.48,0.479,94.146,0h-7.703C90.446,4.538,91.417,8.896,79.167,1.604"/>
<path fill="#010202" d="M75.719,145.932c3.276-0.435,6.308-0.331,9.273-1.743c1.449-0.691,1.528-1.967,1.521-2.646
	c-3.958,0.253-6.042,0.15-8.664,0.079c-5.113-0.139-8.97-1.641-12.227-5.889c-1.337-1.746-5.636-1.752-8.112-6.709
	c-15.596-31.237-0.818-18.4-5.301-26.152c-2.456-4.247-5.813-7.132-7.387-13.792c-1.238-5.238-2.153-7.282,5.796-5.27
	c9.744,2.47,15.948-0.907,19.674-4.128c4.936-4.264,6.23-7.144,6.313-6.32c0.489,4.872-8.126,8.306-5.766,14.159
	c1.141,2.83,3.582,2.219,5.717,2.635c3.179,0.619,4.544,3.501,8.432,3.447c1.732-0.023,5.808-3.278,1.669-4.658
	c-5.161-1.723-6.253-3.922-6.168-7.483c0.027-1.16,2.376-7.511,3.53-10.146c1.015-2.324,0.437-6.593,2.708-7.878
	c0.44-0.248,1.113-0.18,1.527,0.106c1.534,1.061,1.786,3.297,2.091,5.03c2.435,13.893,11.775,15.387,13.611,15.99
	c3.964,1.311,4.719-0.432,2.327-1.37c-1.079-0.425-3.299-1.119-6.146-3.413c-4.438-3.573-6.186-7.636-5.303-11.118
	c0.09-0.347,0.555-0.649,0.93-0.613c7.262,0.676,15.359,6.087,17.624,2.703c1.318-1.966,0.315-2.566,2.686-2.547
	c6.889,0.06,6.554-2.08,3.164-4.457c-1.597-1.12-3.375-2.172-3.297-0.652c0.061,1.237-1.049,4.471-5.299,2.553
	c-5.246-2.368-13.36-1.296-7.951-4.595c2.112-1.289,6.093-0.072,9.005-0.4c3.602-0.406-9.248-6.641-17.315-0.168
	c-0.492,0.394-1.23,1.187-0.934,1.798c0.262,0.542,1.683-0.203,1.97,0.502c0.951,2.352-3.191,2.649-4.722,0.686
	c-2.007-2.571-4.224-2.087-6.509-1.849c-2.553,0.266-2.81-0.658-3.681-2.922c-0.588-1.53-3.441-5.861-4.353-4.311
	c-0.232,0.395-0.033,1.47,0.73,2.965c1.431,2.802,0.797,6.485-0.368,9.207c-0.998,2.324-2.556,6.972-9.163,11.528
	c-1.428,0.983-4.506,2.772-8.588,3.032c-10.408,0.66-13.926-4.079-15.483-8.791c-0.858-2.591-0.102-6.038,0.402-6.399
	c1.317-0.942,5.12-3.042,7.13-0.014c-1.498,1.78-5.623,3.31-4.037,4.806c1.238,1.166,7.456-0.727,10.735-0.778
	c4.424-0.069,12.653,0.804,12.717-3.037c0.028-1.835-5.164-2.363-7.602-3.518c-2.899-1.374-2.263-5.54,9.018-2.82
	c3.41,0.822-1.298-5.445-9.207-4.081c-4.739,0.817-4.98,1.946-9.668,3.005c-0.646,0.146-1.372,0.237-2.006,0.107
	c-1.35-0.273-2.665-0.71-3.994-1.078c0.429-1.374,0.503-2.995,1.345-4.076c4.503-5.788,16-6.234,22.448-2.872
	c3.64,1.897,9.304,0.8,5.901-2.736c-1.874-1.948-8.278-6.382-15.006-6.061c-6.213,0.297-12.71,5.074-16.045,9.68
	c-0.895,1.236-1.503-0.091,0.105-2.12c1.242-1.569,4.968-6.925,5.003-7.757c0.08-1.854-7.241-1.159,0.062-5.556
	c2.766-1.665,4.192-5.046,5.505-7.927c0.853-1.868,1.73-2.639,3.697-2.83c1.775-0.173,3.647-0.358,5.248-1.035
	c1.425-0.602,3.035-1.646,3.697-2.909c2.734-5.214-6.199-21.466-5.709-15.063c1.276,16.664-10.549,7.35-10.915,12.246
	c-0.474,4.194-3.598,7.212-5.904,6.416c-13.844-4.785-3.707,20.952-12.766,14.412c-10.021-7.234-10.893-15.012-7.691-14.392
	c6.965,1.348,15.928-3.67,10.902-3.776C13.974,21.69,26.104,4.322,20.234,7.337c-7.803,4.009-9.54,13.988-2.527,22.451
	c4.485,5.411-20.163-5.895-5.739-22.497C15.657,3.046-2.305,10.39,0.938,30.706C1.146,32,1.78,33.655,1.328,34.863
	c-1.537,4.101-1.753,8.212-0.576,12.317c0.728,2.538,1.836,5.051,3.02,7.389c4.441,8.769,1.97,11.289,3.425,16.813
	c2.201,8.358,8.224,8.97,9.286,11.263C20.525,91.388,27,93.196,29.427,94.293c3.246,1.471,0.084,4.807,6.042,8.02
	c6.99,3.769,9.353-1.318,12.632,13.041c2.08,9.117,2.569,12.206-6.983,14.747c-4.228,1.124-12.394,2.89-17.927,5.429
	c-3.16,1.452-4.327,1.071,0.015,7.788c1.408,2.178,2.96,4.178,4.609,6.013h43.277C71.961,147.223,73.32,146.251,75.719,145.932
	 M39.718,99.633c-2.314,0.035-4.217-1.729-4.249-3.939c-0.031-2.208,1.819-4.026,4.133-4.061s4.217,1.732,4.249,3.941
	C43.879,97.783,42.03,99.601,39.718,99.633"/>
<path fill="#010202" d="M124.195,56.271c0.178-2.678-5.929-9.248-10.402-10.441c-6.396-1.702-16.099,2.837-17.47,6.332
	c-0.875,2.234,2.679,2.089,4.554,1.141C113.136,47.116,124.111,57.547,124.195,56.271"/>
<path fill="#010202" d="M98.481,89.604c0.292-0.199,0.536-0.603,0.447-0.932c-0.32-1.16-1.962-1.86-3.067-2.021
	c-2.418-0.349-7.347,1.103-5.624,3.636C91.964,92.828,96.397,91.006,98.481,89.604"/>
<path fill="#010202" d="M83.758,101.419c-5.868-0.198-4.927,0.132-11.29-0.354c-2.595-0.197-3.132-3.595-2.274-6.355
	c0.822-2.64-0.433-2.176-1.431-1.509c-12.622,8.444-9.778,14.86-7.969,16.15c2.182,1.562,1.476,3.916,2.052,6.224
	c2.002,8.003,11.678,8.578,13.059,8.213c1.304-0.343,1.054-0.927,1.581-1.563c0.665-0.803,8.876,0.935,16.638-1.265
	c2.181-0.619,4.639-2.521,5.52-4.322c1.86-3.811,0.775-2.701,4.749-7.131c0.856-0.956-0.384-1.522-1.198-4.03
	C102.051,101.944,100.842,101.998,83.758,101.419 M96.017,116.143c-1.421,3.05-5.333,3.329-13.972,3.145
	c-3.062-0.065-7.176-1.021-8.459-2.333c-1.403-1.433-1.975-2.802,0.792-2.389c4.016,0.603,8.718,0.887,14.164,0.91
	C94.233,115.499,96.764,114.546,96.017,116.143 M99.091,106.879c-1.054,1.205-5.524,1.219-7.984,1.163
	c-3.416-0.077-8.005-0.196-13.733-0.59c-4.084-0.282-7.553-0.603-8.466-1.597c-1.806-1.961,5.513-2.461,16.816-2.114
	c11.23,0.346,14.204,0.874,14.155,1.083C99.589,106.077,99.451,106.468,99.091,106.879"/>
<polygon fill="#010202" points="335.92,133.813 336.977,133.813 339.282,142.622 341.605,133.813 342.703,133.813 345.006,142.622 
	347.333,133.813 348.368,133.813 345.458,144.868 344.531,144.868 342.148,135.78 339.752,144.868 338.793,144.868 "/>
<polygon fill="#010202" points="359.018,133.813 365.53,133.813 365.53,134.863 360.09,134.863 360.09,138.474 364.137,138.474 
	364.137,139.537 360.09,139.537 360.09,143.805 366.055,143.805 366.055,144.868 359.018,144.868 "/>
<path fill="#010202" d="M392.648,133.813h1.718l3.544,11.055h-1.078l-1.104-3.427h-4.468l-1.116,3.427h-1.087L392.648,133.813z
	 M393.506,134.542l-1.897,5.827h3.773L393.506,134.542z"/>
<path fill="#010202" d="M408.465,133.813h3.384c0.967,0,1.745,0.113,2.334,0.343c0.588,0.229,1.051,0.584,1.389,1.068
	c0.339,0.483,0.508,1.018,0.508,1.601c0,0.637-0.201,1.202-0.603,1.694c-0.401,0.494-1.01,0.865-1.827,1.113l2.688,5.235h-1.152
	l-2.607-5.018h-3.041v5.018h-1.072V133.813z M409.537,134.768v4.136h2.355c0.573,0,1.143-0.095,1.706-0.285
	c0.408-0.135,0.723-0.365,0.945-0.689c0.221-0.322,0.331-0.697,0.331-1.126c0-0.593-0.215-1.08-0.646-1.463
	c-0.43-0.381-1.078-0.572-1.942-0.572H409.537z"/>
<polygon fill="#010202" points="427.257,133.813 433.769,133.813 433.769,134.863 428.329,134.863 428.329,138.474 432.376,138.474 
	432.376,139.537 428.329,139.537 428.329,143.805 434.294,143.805 434.294,144.868 427.257,144.868 "/>
<path fill="#010202" d="M458.582,133.813h3.8c1.304,0,2.29,0.28,2.961,0.846c0.672,0.563,1.008,1.213,1.008,1.947
	c0,0.506-0.166,0.984-0.497,1.439c-0.33,0.454-0.835,0.826-1.518,1.112c0.779,0.297,1.357,0.692,1.736,1.185
	c0.38,0.494,0.569,1.012,0.569,1.551c0,0.758-0.355,1.443-1.065,2.056c-0.71,0.613-1.706,0.919-2.99,0.919h-4.004V133.813z
	 M459.647,134.79v3.93h2.005c1.323,0,2.239-0.192,2.747-0.578c0.508-0.387,0.761-0.86,0.761-1.418c0-0.53-0.226-0.985-0.677-1.364
	c-0.453-0.379-1.133-0.569-2.042-0.569H459.647z M459.647,139.669v4.223h2.902c0.914,0,1.671-0.243,2.269-0.729
	c0.417-0.341,0.627-0.8,0.627-1.379c0-0.403-0.122-0.767-0.368-1.093s-0.62-0.577-1.123-0.756c-0.503-0.178-1.076-0.266-1.717-0.266
	H459.647z"/>
<path fill="#010202" d="M479.54,133.813h1.718l3.544,11.055h-1.079l-1.104-3.427h-4.467l-1.116,3.427h-1.087L479.54,133.813z
	 M480.397,134.542l-1.896,5.827h3.772L480.397,134.542z"/>
<polygon fill="#010202" points="495.044,133.813 496.718,133.813 502.189,142.849 502.189,133.813 503.255,133.813 503.255,144.868 
	502.189,144.868 496.115,134.776 496.115,144.868 495.044,144.868 "/>
<rect x="515.352" y="133.813" fill="#010202" width="1.073" height="11.055"/>
<path fill="#010202" d="M531.847,133.813h1.064v7.788c0,1.006-0.26,1.839-0.78,2.498c-0.521,0.657-1.239,0.987-2.158,0.987
	c-0.608,0-1.131-0.142-1.567-0.423c-0.438-0.282-0.824-0.688-1.16-1.218l0.92-0.518c0.48,0.729,1.086,1.094,1.814,1.094
	c0.52,0,0.962-0.206,1.324-0.616c0.361-0.411,0.543-1.013,0.543-1.805V133.813z"/>
<path fill="#010202" d="M546.699,133.813h1.718l3.544,11.055h-1.079l-1.104-3.427h-4.467l-1.116,3.427h-1.087L546.699,133.813z
	 M547.558,134.542l-1.897,5.827h3.773L547.558,134.542z"/>
<polygon fill="#010202" points="559.96,133.813 561.146,133.813 564.104,138.937 567.067,133.813 568.244,133.813 564.638,140.063 
	564.638,144.868 563.567,144.868 563.567,140.063 "/>
<polygon fill="#010202" points="386.87,3.958 393.382,3.958 393.382,5.008 387.942,5.008 387.942,8.618 391.988,8.618 
	391.988,9.682 387.942,9.682 387.942,13.949 393.907,13.949 393.907,15.013 386.87,15.013 "/>
<path fill="#010202" d="M404.962,11.913c0.121,0.438,0.257,0.776,0.408,1.014c0.253,0.394,0.586,0.709,0.999,0.945
	c0.413,0.236,0.914,0.353,1.503,0.353c0.821,0,1.466-0.211,1.936-0.63c0.47-0.421,0.704-0.92,0.704-1.499
	c0-0.526-0.212-0.972-0.635-1.342c-0.326-0.277-0.981-0.556-1.969-0.839c-1.332-0.384-2.282-0.828-2.853-1.334
	c-0.567-0.501-0.853-1.121-0.853-1.86c0-0.811,0.317-1.511,0.952-2.097c0.635-0.585,1.467-0.878,2.498-0.878
	c0.627,0,1.218,0.117,1.771,0.35c0.556,0.233,1.021,0.581,1.395,1.043c0.257,0.321,0.461,0.739,0.611,1.254l-1.114,0.343
	c-0.19-0.657-0.518-1.16-0.982-1.51c-0.464-0.35-1.019-0.525-1.665-0.525c-0.686,0-1.238,0.188-1.656,0.561
	c-0.418,0.374-0.627,0.817-0.627,1.327c0,0.418,0.17,0.796,0.512,1.137c0.336,0.34,1.073,0.674,2.217,1.004
	c1.356,0.388,2.293,0.838,2.808,1.349c0.51,0.516,0.765,1.166,0.765,1.949c0,0.885-0.348,1.641-1.042,2.266
	c-0.696,0.625-1.62,0.938-2.771,0.938c-0.72,0-1.379-0.143-1.977-0.427c-0.599-0.284-1.084-0.68-1.458-1.185
	c-0.259-0.34-0.468-0.807-0.628-1.4L404.962,11.913z"/>
<polygon fill="#010202" points="421.559,3.958 429.66,3.958 429.66,5.015 426.16,5.015 426.16,15.013 425.088,15.013 425.088,5.015 
	421.559,5.015 "/>
<path fill="#010202" d="M455.773,3.958h1.064V14.05h1.779v0.963h-4.849V14.05h2.005V5.197c-1.001,0.224-1.67,0.339-2.005,0.344V4.73
	C454.623,4.605,455.292,4.346,455.773,3.958"/>
<path fill="#010202" d="M476.585,9.34c-0.451,0.496-0.948,0.875-1.491,1.138c-0.542,0.262-1.136,0.393-1.783,0.393
	c-0.914,0-1.684-0.321-2.311-0.963c-0.628-0.642-0.941-1.439-0.941-2.391c0-0.637,0.161-1.261,0.484-1.871
	c0.324-0.61,0.76-1.079,1.309-1.407c0.55-0.328,1.141-0.493,1.772-0.493c0.705,0,1.394,0.206,2.063,0.616
	c0.671,0.411,1.191,1.035,1.562,1.871c0.369,0.837,0.554,1.816,0.554,2.939c0,1.216-0.216,2.305-0.649,3.268
	c-0.432,0.962-1.019,1.668-1.761,2.118c-0.742,0.449-1.515,0.674-2.321,0.674c-0.813,0-1.633-0.247-2.459-0.743l0.663-0.839
	c0.613,0.33,1.212,0.496,1.796,0.496c0.505,0,0.982-0.117,1.433-0.351c0.449-0.232,0.828-0.558,1.137-0.976
	c0.31-0.419,0.534-0.894,0.678-1.426C476.462,10.86,476.552,10.176,476.585,9.34 M476.512,7.881c-0.097-0.573-0.236-1.04-0.415-1.4
	c-0.282-0.564-0.637-0.985-1.064-1.261c-0.428-0.277-0.886-0.416-1.371-0.416c-0.803,0-1.422,0.285-1.859,0.857
	c-0.438,0.571-0.657,1.185-0.657,1.841c0,0.686,0.215,1.248,0.646,1.684c0.431,0.438,0.98,0.657,1.651,0.657
	c0.613,0,1.175-0.165,1.686-0.492C475.637,9.022,476.099,8.533,476.512,7.881"/>
<path fill="#010202" d="M492.737,9.157c0.705,0.247,1.242,0.496,1.611,0.744c0.491,0.325,0.85,0.682,1.075,1.068
	c0.228,0.386,0.341,0.801,0.341,1.243c0,0.788-0.331,1.459-0.993,2.013c-0.797,0.671-1.857,1.007-3.18,1.007
	c-1.317,0-2.329-0.301-3.036-0.905c-0.707-0.603-1.062-1.298-1.062-2.085c0-0.438,0.114-0.871,0.343-1.299
	c0.229-0.427,0.568-0.807,1.021-1.137c0.315-0.228,0.763-0.445,1.341-0.649c-0.777-0.37-1.346-0.767-1.706-1.193
	c-0.36-0.425-0.54-0.91-0.54-1.454c0-0.729,0.328-1.373,0.981-1.929c0.653-0.557,1.575-0.835,2.767-0.835
	c1.128,0,2.004,0.274,2.626,0.824c0.622,0.549,0.934,1.196,0.934,1.94c0,0.559-0.219,1.089-0.656,1.589
	C494.166,8.6,493.544,8.953,492.737,9.157 M491.118,9.536c-0.831,0.306-1.444,0.702-1.837,1.189
	c-0.394,0.486-0.591,0.972-0.591,1.458c0,0.508,0.248,0.958,0.743,1.351c0.497,0.392,1.236,0.589,2.225,0.589
	c0.578,0,1.107-0.097,1.586-0.29c0.479-0.193,0.817-0.444,1.017-0.754c0.199-0.31,0.3-0.605,0.3-0.881
	c0-0.369-0.168-0.727-0.503-1.072C493.615,10.669,492.635,10.139,491.118,9.536 M491.628,8.734c0.721-0.326,1.229-0.58,1.525-0.763
	c0.296-0.182,0.521-0.387,0.678-0.616c0.155-0.228,0.233-0.481,0.233-0.758c0-0.477-0.21-0.896-0.631-1.256
	c-0.421-0.358-1.03-0.538-1.827-0.538c-0.803,0-1.412,0.175-1.83,0.524c-0.418,0.349-0.627,0.756-0.627,1.219
	c0,0.375,0.157,0.722,0.471,1.043S490.604,8.292,491.628,8.734"/>
<path fill="#010202" d="M506.658,9.631c0.379-0.496,0.857-0.881,1.433-1.156c0.576-0.275,1.173-0.412,1.79-0.412
	c0.973,0,1.764,0.309,2.374,0.929c0.609,0.62,0.915,1.429,0.915,2.426c0,0.874-0.242,1.668-0.729,2.377
	c-0.65,0.957-1.582,1.437-2.793,1.437c-0.768,0-1.479-0.207-2.132-0.62c-0.655-0.413-1.164-1.034-1.529-1.863
	c-0.363-0.829-0.546-1.801-0.546-2.914c0-1.186,0.21-2.269,0.631-3.249c0.42-0.979,1.007-1.697,1.757-2.155
	c0.752-0.457,1.564-0.685,2.439-0.685c0.788,0,1.572,0.238,2.356,0.715l-0.657,0.809c-0.652-0.326-1.245-0.488-1.78-0.488
	c-0.985,0-1.82,0.401-2.504,1.203C507,6.788,506.658,8.002,506.658,9.631 M506.746,10.987c0.102,0.647,0.258,1.165,0.466,1.554
	c0.297,0.549,0.676,0.967,1.138,1.254c0.351,0.218,0.767,0.328,1.247,0.328c0.7,0,1.295-0.255,1.783-0.766
	c0.489-0.51,0.732-1.152,0.732-1.925c0-0.696-0.216-1.26-0.648-1.696c-0.434-0.435-0.987-0.652-1.663-0.652
	c-0.578,0-1.122,0.158-1.63,0.474C507.663,9.875,507.188,10.351,506.746,10.987"/>
</svg>
