<svg id="Layer_1" data-name="Layer 1" xmlns="http://www.w3.org/2000/svg" viewBox="0 0 218.63 102.88"><title>Logo_with boundaries_02</title><path d="M216,75.36h-3.72V48.43A43.52,43.52,0,0,0,168.73,4.89H5V50.58H1.29V1.16H168.73A47.32,47.32,0,0,1,216,48.43V75.36Z"/><path d="M14.18,76.22l-9-11.75V76.36h-4V57.74H4.87L13.61,69.2V57.74h4V76.36H14.18Z"/><path d="M29.65,76.65a7.45,7.45,0,0,1-7.74-7.31h0a7.47,7.47,0,0,1,7.74-7.44,7.43,7.43,0,0,1,7.73,7.3h0A7.55,7.55,0,0,1,29.65,76.65Zm3.72-7.45a3.73,3.73,0,0,0-3.72-3.87,3.65,3.65,0,0,0-3.73,3.87h0a3.74,3.74,0,0,0,3.73,3.87,3.57,3.57,0,0,0,3.72-3.87Z"/><path d="M49.56,66.05c-2.72,0-4.3,1.57-4.3,5v5.3h-4V62h4V64.9c.86-2,2.15-3.29,4.58-3.15v4.3Z"/><path d="M63.31,76.22v-2a5.27,5.27,0,0,1-4.44,2.3c-3.3,0-6.45-2.58-6.45-7.31h0c0-4.73,3.15-7.3,6.45-7.3A5.56,5.56,0,0,1,63.31,64V57h4V76.51h-4Zm.14-7c0-2.43-1.57-3.87-3.44-3.87a3.6,3.6,0,0,0-3.43,3.87h0c0,2.44,1.57,3.87,3.43,3.87a3.6,3.6,0,0,0,3.44-3.87Z"/><path d="M71.9,60.46V56.88h4.3v3.58Zm.15,15.76V61.9h4V76.22Z"/><path d="M85.65,76.51a10.43,10.43,0,0,1-6.16-2.15l1.72-2.72a8,8,0,0,0,4.44,1.71c1.15,0,1.72-.43,1.72-1h0c0-.86-1.43-1.14-3-1.72-2-.57-4.29-1.57-4.29-4.29h0c0-2.87,2.29-4.59,5.15-4.59a9,9,0,0,1,5.3,1.72L89,66.19a8.16,8.16,0,0,0-3.87-1.29c-1,0-1.43.43-1.43,1h0c0,.86,1.29,1.14,2.86,1.71,2,.72,4.3,1.58,4.3,4.3h0C91.1,75.07,88.8,76.51,85.65,76.51Z"/><path d="M104.13,76.22l-3.72-5.87L99,71.78v4.3H95V56.88h4V67.2L103.7,62h4.87l-5.44,5.58,5.58,8.6Z"/><path d="M5.3,87v4h8.88V94.7H5.3v7.16H1.14V83.24H15.32V87Z"/><path d="M18.76,86.1V82.52h4.3V86.1Zm.14,15.76V87.54h4v14.32Z"/><path d="M27.64,101.86V82.52h4V102h-4Z"/><path d="M54,101.86v-8C54,92,53.14,91,51.56,91s-2.43,1-2.43,2.87v8H45.26v-8C45.26,92,44.4,91,42.83,91s-2.44,1-2.44,2.87v8h-4V87.54h4v2a5.29,5.29,0,0,1,4.15-2.29,4.27,4.27,0,0,1,4,2.29,6,6,0,0,1,4.72-2.29c3,0,4.87,1.86,4.87,5.3v9.31Z"/><path d="M84.36,102.29l-2.14-2.15a8.25,8.25,0,0,1-5.45,2c-3.58,0-6.3-2-6.3-5.45,0-2.43,1.29-4,3.58-5.15a6.52,6.52,0,0,1-1.29-3.73c0-2.58,2-4.87,5.59-4.87,3.15,0,5.3,2,5.3,4.73s-1.58,4-3.87,4.87L82.22,95c.57-1,1.29-2,1.86-3.15l3,1.72a36.17,36.17,0,0,1-2.44,3.87l2.72,2.72Zm-8-8.17a2.64,2.64,0,0,0-1.72,2.44,2.32,2.32,0,0,0,2.58,2.15,5.25,5.25,0,0,0,2.72-1Zm2-7.87a1.72,1.72,0,0,0-1.86,1.86,3,3,0,0,0,1.14,2.29c1.58-.57,2.44-1.29,2.44-2.44A1.58,1.58,0,0,0,78.35,86.25Z"/><path d="M108.43,87.11V102h-4.16V87.11H98.55V83.38H114v3.73Z"/><path d="M128.2,102h-3.59L117,83.24h4.59l4.87,13.18,4.87-13.18h4.44Z"/><path d="M152.4,87v4h8.88V94.7H152.4v7.16h-4V83.24h14.18V87Z"/><path d="M172.6,102.29A7.45,7.45,0,0,1,164.86,95h0a7.74,7.74,0,0,1,15.47-.14h0A7.55,7.55,0,0,1,172.6,102.29Zm3.87-7.45A3.74,3.74,0,0,0,172.74,91,3.65,3.65,0,0,0,169,94.84h0a3.73,3.73,0,0,0,3.72,3.87,3.65,3.65,0,0,0,3.73-3.87Z"/><path d="M193.23,101.86v-8c0-1.86-.86-2.87-2.44-2.87s-2.58,1-2.58,2.87v8h-4V87.54h4v2a5.3,5.3,0,0,1,4.16-2.29c3,0,4.87,2,4.87,5.3v9.17h-4Z"/><path d="M212,101.86v-2a5.27,5.27,0,0,1-4.44,2.3c-3.3,0-6.45-2.58-6.45-7.31h0c0-4.73,3.15-7.3,6.45-7.3A5.56,5.56,0,0,1,212,89.68v-7h4v19.49h-4Zm0-7.16c0-2.44-1.58-3.87-3.44-3.87a3.61,3.61,0,0,0-3.44,3.87h0c0,2.43,1.58,3.86,3.44,3.86S212,97.13,212,94.7Z"/></svg>